<?xml version="1.0" encoding="utf-8"?>
<svg viewBox="4678.813 406.204 6852.707 4985.095" width="6852.707" height="4985.095" xmlns="http://www.w3.org/2000/svg">
  <defs>
    <style type="text/css">
   
    .fil13 {fill:#FEFEFE;fill-rule:nonzero}
    .fil0 {fill:#AADDF8;fill-rule:nonzero}
    .fil2 {fill:#7ACDF4;fill-rule:nonzero}
    .fil8 {fill:#7ACDF1;fill-rule:nonzero}
    .fil1 {fill:#4EC1E2;fill-rule:nonzero}
    .fil3 {fill:#44BFE1;fill-rule:nonzero}
    .fil5 {fill:#35B9EC;fill-rule:nonzero}
    .fil14 {fill:#34302F;fill-rule:nonzero}
    .fil7 {fill:#33ACDD;fill-rule:nonzero}
    .fil4 {fill:#358EBF;fill-rule:nonzero}
    .fil9 {fill:#1C89B6;fill-rule:nonzero}
    .fil6 {fill:#1385BC;fill-rule:nonzero}
    .fil10 {fill:#1E7EB3;fill-rule:nonzero}
    .fil12 {fill:#1567A2;fill-rule:nonzero}
    .fil11 {fill:#2F335B;fill-rule:nonzero}
   
  </style>
  </defs>
  <path class="fil11" d="M9142.97 3168.57c15.13,63.87 -12.25,125.02 -61.09,136.57 -48.83,11.55 -100.7,-30.86 -115.78,-94.75 -15.12,-63.87 12.25,-125.03 61.08,-136.58 48.83,-11.55 100.7,30.87 115.79,94.76z"/>
  <path class="fil11" d="M5461.75 4224.38c42.75,-10.13 83.87,8.99 91.83,42.66 7.95,33.7 -20.25,69.21 -63,79.33 -42.75,10.13 -83.88,-9 -91.83,-42.71 -7.96,-33.66 20.25,-69.2 63,-79.28z"/>
  <path class="fil11" d="M5396.62 4001.58c42.75,-10.12 85.17,14.5 94.75,54.99 9.59,40.48 -17.33,81.49 -60.08,91.61 -42.75,10.11 -85.16,-14.51 -94.75,-55 -9.58,-40.48 17.34,-81.49 60.08,-91.6z"/>
  <path class="fil11" d="M5468.08 3798.54c42.75,-10.11 85.17,14.5 94.75,54.99 9.59,40.48 -17.33,81.49 -60.08,91.61 -42.75,10.11 -85.17,-14.51 -94.75,-55 -9.58,-40.48 17.34,-81.49 60.08,-91.6z"/>
  <path class="fil11" d="M5574.41 3637.42c42.75,-10.11 85.17,14.51 94.75,54.98 9.58,40.5 -17.33,81.5 -60.08,91.62 -42.75,10.12 -85.17,-14.52 -94.75,-54.99 -9.58,-40.48 17.34,-81.5 60.08,-91.61z"/>
  <path class="fil11" d="M5756.82 3489.11c42.75,-10.11 85.17,14.51 94.75,54.99 9.58,40.49 -17.33,81.5 -60.08,91.61 -42.75,10.11 -85.17,-14.51 -94.75,-54.99 -9.58,-40.49 17.33,-81.5 60.08,-91.61z"/>
  <path class="fil11" d="M5991.69 3392.22c58.41,-13.81 113.5,7.82 123.08,48.3 9.58,40.48 -30,84.49 -88.42,98.3 -58.37,13.81 -113.5,-7.81 -123.03,-48.3 -9.58,-40.48 30,-84.49 88.37,-98.3z"/>
  <path class="fil11" d="M6238.84 3354.66c58.38,-13.82 113.47,7.82 123.05,48.29 9.58,40.48 -30,84.49 -88.38,98.31 -58.4,13.8 -113.49,-7.82 -123.07,-48.3 -9.58,-40.49 30,-84.5 88.4,-98.3z"/>
  <path class="fil11" d="M6523.6 3367.24c58.4,-13.82 113.49,7.8 123.07,48.29 9.58,40.48 -30,84.49 -88.42,98.31 -58.37,13.8 -113.45,-7.82 -123.03,-48.3 -9.59,-40.49 30,-84.5 88.38,-98.3z"/>
  <path class="fil11" d="M6794.67 3382.6c58.41,-13.81 113.49,7.82 123.08,48.3 9.58,40.47 -30,84.49 -88.42,98.3 -58.38,13.81 -113.45,-7.82 -123.04,-48.29 -9.57,-40.49 30,-84.51 88.38,-98.31z"/>
  <path class="fil11" d="M5134.84 2677.04c48.67,-11.5 95.87,11.98 105.45,52.47 9.59,40.48 -22.12,82.63 -70.78,94.13 -48.62,11.51 -95.84,-11.97 -105.42,-52.47 -9.58,-40.48 22.08,-82.63 70.75,-94.13z"/>
  <path class="fil11" d="M5381.12 2590.85c53.88,-12.74 104.96,8.36 114.13,47.11 9.17,38.76 -27.08,80.49 -80.91,93.22 -53.88,12.74 -104.96,-8.36 -114.13,-47.11 -9.12,-38.75 27.08,-80.49 80.91,-93.22z"/>
  <path class="fil11" d="M5642.49 2477.56c53.83,-12.74 104.91,8.36 114.08,47.1 9.17,38.76 -27.03,80.5 -80.91,93.23 -53.83,12.74 -104.91,-8.36 -114.08,-47.12 -9.17,-38.74 27.08,-80.48 80.91,-93.21z"/>
  <path class="fil11" d="M5875.73 2376c53.88,-12.73 104.96,8.37 114.13,47.11 9.17,38.76 -27.09,80.49 -80.92,93.23 -53.87,12.73 -104.95,-8.36 -114.08,-47.11 -9.16,-38.76 27.04,-80.49 80.87,-93.23z"/>
  <path class="fil11" d="M6132.52 2302.13c53.83,-12.74 104.92,8.35 114.08,47.11 9.16,38.74 -27.04,80.49 -80.87,93.21 -53.88,12.74 -104.96,-8.35 -114.13,-47.11 -9.16,-38.74 27.09,-80.48 80.92,-93.21z"/>
  <path class="fil11" d="M6394.6 2335.31c53.83,-12.73 104.91,8.35 114.07,47.11 9.17,38.75 -27.04,80.49 -80.91,93.23 -53.83,12.73 -104.91,-8.37 -114.08,-47.11 -9.17,-38.76 27.04,-80.5 80.92,-93.23z"/>
  <path class="fil11" d="M6701.5 2417.67c48.92,25.9 71.91,78.26 51.41,116.97 -20.49,38.71 -76.74,49.1 -125.66,23.22 -48.87,-25.89 -71.91,-78.26 -51.41,-116.97 20.49,-38.71 76.75,-49.11 125.66,-23.22z"/>
  <path class="fil11" d="M6926.37 2575.4c48.92,25.89 71.96,78.25 51.46,116.96 -20.5,38.72 -76.75,49.11 -125.67,23.22 -48.92,-25.89 -71.91,-78.26 -51.41,-116.97 20.5,-38.71 76.75,-49.1 125.62,-23.21z"/>
  <path class="fil11" d="M7172.28 2718.18c42.04,22.25 61.83,67.27 44.21,100.56 -17.59,33.27 -65.96,42.21 -108,19.95 -42.04,-22.25 -61.87,-67.28 -44.25,-100.56 17.63,-33.28 66,-42.22 108.04,-19.95z"/>
  <path class="fil11" d="M7366.28 2811.43c42.04,22.25 61.86,67.27 44.24,100.56 -17.62,33.28 -66,42.22 -108.03,19.95 -42.04,-22.25 -61.84,-67.28 -44.22,-100.57 17.63,-33.28 65.97,-42.21 108.01,-19.94z"/>
  <path class="fil11" d="M7026.54 3404.77c58.36,-13.82 113.49,7.81 123.03,48.29 9.58,40.48 -30,84.49 -88.37,98.3 -58.41,13.81 -113.5,-7.81 -123.08,-48.29 -9.58,-40.49 30,-84.5 88.42,-98.3z"/>
  <path class="fil11" d="M7300.98 3411.64c58.37,-13.81 113.5,7.81 123.08,48.3 9.54,40.48 -30.04,84.49 -88.41,98.31 -58.38,13.8 -113.5,-7.83 -123.08,-48.3 -9.55,-40.49 30.03,-84.5 88.41,-98.31z"/>
  <path class="fil11" d="M7555.02 3354.66c58.37,-13.82 113.45,7.82 123.03,48.29 9.59,40.48 -30,84.49 -88.37,98.31 -58.41,13.8 -113.5,-7.82 -123.08,-48.3 -9.58,-40.49 30,-84.5 88.42,-98.3z"/>
  <path class="fil11" d="M7802.93 3309.99c47.04,-11.13 92.95,12.67 102.53,53.15 9.59,40.49 -20.83,82.32 -67.87,93.45 -47.04,11.12 -92.96,-12.68 -102.54,-53.16 -9.58,-40.48 20.84,-82.32 67.88,-93.44z"/>
  <path class="fil11" d="M8162.83 3379.27c31.46,45.38 23.8,105.2 -17.17,133.59 -40.95,28.41 -99.66,14.64 -131.11,-30.73 -31.5,-45.38 -23.8,-105.2 17.12,-133.59 40.96,-28.41 99.66,-14.64 131.16,30.73z"/>
  <path class="fil11" d="M8398.41 3494.53c31.46,45.37 23.79,105.19 -17.17,133.6 -40.95,28.39 -99.66,14.63 -131.17,-30.75 -31.45,-45.38 -23.78,-105.2 17.17,-133.6 40.96,-28.39 99.67,-14.63 131.17,30.75z"/>
  <path class="fil11" d="M8616.61 3598.51c31.46,45.39 23.79,105.2 -17.16,133.6 -40.97,28.4 -99.67,14.64 -131.17,-30.74 -31.45,-45.39 -23.79,-105.19 17.17,-133.6 40.95,-28.41 99.66,-14.64 131.16,30.74z"/>
  <path class="fil11" d="M8808.85 3737.39c31.5,45.38 23.8,105.2 -17.17,133.59 -40.9,28.41 -99.66,14.64 -131.11,-30.74 -31.5,-45.37 -23.8,-105.2 17.17,-133.58 40.95,-28.41 99.66,-14.66 131.11,30.73z"/>
  <path class="fil11" d="M8970.69 3909.4c31.45,45.38 23.78,105.18 -17.17,133.59 -40.96,28.4 -99.66,14.64 -131.13,-30.74 -31.5,-45.38 -23.78,-105.19 17.12,-133.6 40.97,-28.39 99.68,-14.64 131.18,30.75z"/>
  <path class="fil11" d="M8977.47 4149.76c31.5,45.37 23.83,105.2 -17.12,133.61 -40.97,28.37 -99.66,14.63 -131.16,-30.74 -31.46,-45.38 -23.8,-105.2 17.16,-133.61 40.96,-28.4 99.67,-14.64 131.12,30.74z"/>
  <path class="fil11" d="M8837.73 4332.16c31.45,45.37 23.8,105.21 -17.17,133.58 -40.95,28.42 -99.66,14.67 -131.16,-30.7 -31.46,-45.42 -23.79,-105.21 17.16,-133.63 40.96,-28.37 99.67,-14.62 131.17,30.75z"/>
  <path class="fil11" d="M8675.82 4464.66c31.45,45.37 23.79,105.2 -17.17,133.62 -40.96,28.38 -99.66,14.62 -131.16,-30.75 -31.46,-45.37 -23.8,-105.2 17.17,-133.62 40.95,-28.38 99.66,-14.62 131.16,30.75z"/>
  <path class="fil11" d="M8505.32 4537.95c31.5,45.41 26.75,103.16 -10.53,129.03 -37.34,25.88 -93.09,10.09 -124.59,-35.29 -31.45,-45.37 -26.75,-103.16 10.59,-129.03 37.29,-25.88 93.07,-10.09 124.53,35.29z"/>
  <path class="fil11" d="M8320.99 4614.19c21.67,31.21 13.67,74.26 -17.83,96.09 -31.5,21.87 -74.62,14.29 -96.25,-16.92 -21.67,-31.21 -13.66,-74.25 17.83,-96.08 31.5,-21.88 74.63,-14.29 96.25,16.91z"/>
  <path class="fil11" d="M8213.41 4729.69c21.62,31.21 13.62,74.21 -17.88,96.08 -31.49,21.84 -74.58,14.25 -96.24,-16.95 -21.63,-31.21 -13.63,-74.25 17.87,-96.09 31.5,-21.83 74.59,-14.25 96.25,16.96z"/>
  <path class="fil11" d="M8153.74 4877.98c21.64,31.21 13.64,74.24 -17.86,96.08 -31.5,21.87 -74.58,14.29 -96.25,-16.92 -21.62,-31.25 -13.63,-74.24 17.88,-96.08 31.5,-21.87 74.57,-14.29 96.23,16.92z"/>
  <path class="fil11" d="M8153.74 5039.93c21.64,31.21 13.64,74.25 -17.86,96.08 -31.5,21.88 -74.58,14.3 -96.25,-16.96 -21.62,-31.2 -13.63,-74.2 17.88,-96.07 31.5,-21.84 74.57,-14.25 96.23,16.95z"/>
  <path class="fil11" d="M8170.62 5173.35c15.63,22.53 11.09,52.7 -10.16,67.41 -21.22,14.71 -51.08,8.42 -66.67,-14.08 -15.62,-22.5 -11.08,-52.71 10.17,-67.42 21.21,-14.7 51.08,-8.41 66.66,14.09z"/>
  <path class="fil11" d="M9422.22 3114.99c15.12,63.88 -24.43,127.91 -88.3,143.02 -63.88,15.11 -127.92,-24.44 -143.04,-88.32 -15.08,-63.88 24.46,-127.9 88.34,-143.01 63.87,-15.11 127.91,24.43 143,88.31z"/>
  <path class="fil11" d="M9643.12 3098.96c13.67,57.71 -16.66,114.26 -67.67,126.34 -51.03,12.06 -103.49,-24.93 -117.11,-82.63 -13.67,-57.71 16.66,-114.26 67.7,-126.34 50.99,-12.08 103.46,24.93 117.08,82.63z"/>
  <path class="fil11" d="M9917.4 3078.31c13.17,55.56 -25.03,112.15 -85.28,126.4 -60.3,14.25 -119.8,-19.24 -132.91,-74.79 -13.13,-55.56 25.07,-112.15 85.33,-126.4 60.25,-14.25 119.74,19.24 132.86,74.79z"/>
  <path class="fil11" d="M9734.83 2547.63c25.41,36.85 16.2,87.35 -20.66,112.79 -36.84,25.44 -87.35,16.21 -112.8,-20.63 -25.41,-36.84 -16.21,-87.34 20.67,-112.78 36.83,-25.46 87.33,-16.21 112.79,20.62z"/>
  <path class="fil11" d="M9860.99 2375.86c25.46,36.86 16.21,87.35 -20.62,112.8 -36.83,25.45 -87.33,16.21 -112.8,-20.63 -25.41,-36.85 -16.21,-87.35 20.67,-112.79 36.83,-25.45 87.33,-16.21 112.75,20.62z"/>
  <path class="fil11" d="M9956.11 2186.55c25.46,36.84 16.21,87.34 -20.63,112.78 -36.86,25.45 -87.36,16.21 -112.78,-20.63 -25.46,-36.85 -16.21,-87.35 20.62,-112.79 36.83,-25.44 87.33,-16.21 112.79,20.64z"/>
  <path class="fil11" d="M10037.19 2013.5c25.46,36.84 19.13,85.33 -14.12,108.29 -33.25,22.95 -80.79,11.69 -106.25,-25.15 -25.46,-36.84 -19.12,-85.32 14.09,-108.28 33.25,-22.96 80.83,-11.71 106.28,25.14z"/>
  <path class="fil11" d="M10135.9 1869.32c45,0 81.42,34.55 81.42,77.17 0,42.62 -36.42,77.16 -81.42,77.16 -44.96,0 -81.42,-34.54 -81.42,-77.16 0,-42.62 36.46,-77.17 81.42,-77.17z"/>
  <path class="fil11" d="M10338.14 1880.25c44.96,0 81.41,34.55 81.41,77.16 0,42.61 -36.45,77.17 -81.41,77.17 -44.96,0 -81.42,-34.56 -81.42,-77.17 0,-42.61 36.46,-77.16 81.42,-77.16z"/>
  <path class="fil11" d="M10533.38 1977.91c44.96,0 81.42,34.54 81.42,77.16 0,42.61 -36.46,77.15 -81.42,77.15 -44.99,0 -81.41,-34.54 -81.41,-77.15 0,-42.62 36.42,-77.16 81.41,-77.16z"/>
  <path class="fil11" d="M10649.67 2115.57c39.58,0 71.71,30.13 71.71,67.29 0,37.17 -32.13,67.3 -71.71,67.3 -39.62,0 -71.7,-30.13 -71.7,-67.3 0,-37.16 32.08,-67.29 71.7,-67.29z"/>
  <path class="fil11" d="M10727.59 2264.81c30.12,0 54.54,24.42 54.54,54.52 0,30.1 -24.42,54.51 -54.54,54.51 -30.08,0 -54.5,-24.41 -54.5,-54.51 0,-30.1 24.42,-54.52 54.5,-54.52z"/>
  <path class="fil11" d="M10807.46 2388.51c30.08,0 54.5,24.4 54.5,54.51 0,30.1 -24.42,54.5 -54.5,54.5 -30.13,0 -54.54,-24.4 -54.54,-54.5 0,-30.11 24.41,-54.51 54.54,-54.51z"/>
  <path class="fil11" d="M10924.03 2462.95c30.14,0 54.55,24.41 54.55,54.51 0,30.1 -24.41,54.52 -54.55,54.52 -30.08,0 -54.49,-24.42 -54.49,-54.52 0,-30.1 24.41,-54.51 54.49,-54.51z"/>
  <path class="fil11" d="M11055.2 2462.95c30.08,0 54.5,24.41 54.5,54.51 0,30.1 -24.42,54.52 -54.5,54.52 -30.12,0 -54.49,-24.42 -54.49,-54.52 0,-30.1 24.37,-54.51 54.49,-54.51z"/>
  <path class="fil11" d="M11184.78 2401.64c30.13,0 54.5,24.41 54.5,54.52 0,30.1 -24.37,54.5 -54.5,54.5 -30.08,0 -54.49,-24.4 -54.49,-54.5 0,-30.11 24.41,-54.52 54.49,-54.52z"/>
  <path class="fil11" d="M11277.2 2325.64c30.08,0 54.49,24.41 54.49,54.52 0,30.1 -24.41,54.5 -54.49,54.5 -30.13,0 -54.54,-24.4 -54.54,-54.5 0,-30.11 24.41,-54.52 54.54,-54.52z"/>
  <path class="fil11" d="M11381.48 2248.01c24.79,0 44.83,20.08 44.83,44.83 0,24.76 -20.04,44.84 -44.83,44.84 -24.75,0 -44.79,-20.08 -44.79,-44.84 0,-24.75 20.04,-44.83 44.79,-44.83z"/>
  <path class="fil11" d="M10175.99 3088.43c13.11,55.55 -25.09,112.13 -85.34,126.38 -60.26,14.26 -119.75,-19.23 -132.92,-74.78 -13.11,-55.56 25.08,-112.15 85.33,-126.4 60.26,-14.25 119.75,19.24 132.93,74.8z"/>
  <path class="fil11" d="M10401.68 3180.49c12.51,52.9 -23.25,106.64 -79.92,120.03 -56.62,13.39 -112.66,-18.63 -125.16,-71.54 -12.5,-52.9 23.25,-106.64 79.88,-120.03 56.62,-13.39 112.7,18.63 125.2,71.54z"/>
  <path class="fil11" d="M10549.64 3346.86c10.7,45.27 -19.67,91.23 -67.88,102.62 -48.21,11.4 -95.96,-16.06 -106.66,-61.34 -10.7,-45.28 19.66,-91.23 67.87,-102.61 48.21,-11.4 95.95,16.05 106.67,61.33z"/>
  <path class="fil11" d="M10698.22 3514c10.7,45.27 -19.68,91.21 -67.88,102.61 -48.21,11.4 -95.95,-16.06 -106.66,-61.34 -10.72,-45.28 19.66,-91.22 67.87,-102.61 48.2,-11.41 95.95,16.06 106.67,61.34z"/>
  <path class="fil11" d="M10805.96 3673.5c10.71,45.28 -19.7,91.22 -67.91,102.61 -48.21,11.4 -95.96,-16.06 -106.67,-61.34 -10.71,-45.28 19.71,-91.22 67.91,-102.61 48.21,-11.4 95.96,16.06 106.67,61.34z"/>
  <path class="fil11" d="M10895.37 3820.79c10.72,45.28 -19.66,91.23 -67.87,102.62 -48.21,11.41 -95.95,-16.06 -106.67,-61.34 -10.7,-45.27 19.67,-91.21 67.88,-102.61 48.21,-11.4 95.96,16.05 106.66,61.33z"/>
  <path class="fil11" d="M11008.87 3986.73c8.33,35.2 -20.75,72.22 -64.91,82.67 -44.22,10.45 -86.75,-9.63 -95.08,-44.83 -8.33,-35.22 20.75,-72.24 64.91,-82.68 44.2,-10.45 86.75,9.63 95.08,44.84z"/>
  <path class="fil11" d="M11111.32 4018.91c27.71,23.25 26.55,70.3 -2.57,105.1 -29.17,34.79 -75.29,44.16 -103.05,20.93 -27.74,-23.23 -26.58,-70.29 2.59,-105.08 29.16,-34.81 75.29,-44.18 103.03,-20.95z"/>
  <path class="fil12" d="M8274.99 5109.47c11.8,36.62 40.67,113.67 137.38,166.62 96.67,53 222.87,125.46 40.99,114 -181.91,-11.46 -387.06,-85.21 -372.78,-393.03 14.3,-307.87 255.45,-412.57 442.7,-490.36 187.24,-77.75 443.53,-204.66 405.86,-466.55 -20.84,-144.68 -254.7,-326.89 -525.23,-472.42 -216.54,-116.48 -429.49,-198.88 -595.11,-193.28 -106.33,3.6 -442.49,133.81 -649.77,112.34 -256.65,-26.58 -952.05,-110.67 -1267.47,-1.18 -127.37,44.23 -605.73,352.26 -426.01,737.85 88.11,189.12 135.56,208.11 112.03,224.33 -51.75,35.62 -323.58,-179.92 -333.41,-336.19 -14.2,-226.29 79.5,-607.43 570.44,-852.11 608.94,-303.48 1583.66,-77.35 1645.54,-337.99 12.37,-52.24 -72.2,-24.68 -312.61,-144.4 -137.63,-68.54 -555.91,-397.33 -827.11,-419.61 -365.78,-30.04 -856.85,259.03 -953.31,305.36 -130.78,62.83 -614.64,226.19 -682.31,-28.56 -49.16,-185.12 218.25,-343.12 278.54,-349.47 60.28,-6.34 -71.13,109.31 -69.54,168.02 1.63,58.71 206.74,87.83 444.78,-91.48 238.03,-179.31 481.15,-327.11 708.26,-406.49 338.49,-118.29 797.07,147.51 948.89,251.56 595.31,408.02 750.03,77.18 642.11,-187.82 -93.62,-229.91 -239.58,-460.17 -209.46,-814.03 30.18,-353.86 209.09,-848.94 996.93,-794.2 862.02,59.9 966.35,592.67 850.89,941.37 -125.78,380.03 -418.9,760.48 -334.4,924.72 47.12,91.57 457.02,284.43 582.78,-89.66 127.65,-379.8 197.94,-750.55 740.64,-698.19 469.48,45.3 536.77,515.23 587.47,629.95 123.01,278.1 428.08,203.12 678.82,-77.74 0,0 -209.99,482.47 -536.77,493.89 -272.54,9.52 -295.11,-590.92 -764.06,-603.39 -358.2,-9.52 -337.99,367.74 -522.45,603.39 -76.37,97.55 -414.4,227.92 -379.65,224.92 196.28,-16.91 553.4,-42.84 725.98,5.96 190.82,53.95 623.23,222.15 727.14,572.43 73.8,248.7 115.45,639.09 429.65,628.38 179.95,-6.14 225.16,-19.32 197.53,26.19 -26.07,42.99 -147.82,136.16 -295.11,122.27 -231.41,-21.8 -420.15,-375.77 -471.32,-493.59 -254.74,-586.48 -900.52,-512.54 -1170.25,-485.56 -269.75,26.97 -612.53,134.88 -525.23,207.87 87.29,72.99 492.64,381.23 505.4,587.12 46.41,749.36 -759.32,529.57 -1109.97,906.06 -79.08,84.87 -92.83,193.87 -67.42,272.7z" style="fill: rgb(145, 94, 255);"/>
  <path class="fil13" d="M8173.99 1676.84c0,140.39 -113.83,254.21 -254.19,254.21 -140.42,0 -254.25,-113.82 -254.25,-254.21 0,-140.4 113.83,-254.2 254.25,-254.2 140.36,0 254.19,113.8 254.19,254.2z"/>
  <path class="fil14" d="M7973.59 1708.39c0,63.28 -53.5,114.58 -119.54,114.58 -66,0 -119.53,-51.3 -119.53,-114.58 0,-63.27 53.53,-114.56 119.53,-114.56 66.04,0 119.54,51.29 119.54,114.56z"/>
  <path class="fil13" d="M7871.34 1695.92c0,29.32 -26.54,53.1 -59.34,53.1 -32.74,0 -59.32,-23.78 -59.32,-53.1 0,-29.33 26.58,-53.1 59.32,-53.1 32.8,0 59.34,23.77 59.34,53.1z"/>
  <path class="fil13" d="M8349.54 1695.92c0,140.39 113.78,254.21 254.19,254.21 140.37,0 254.2,-113.82 254.2,-254.21 0,-140.4 -113.83,-254.2 -254.2,-254.2 -140.41,0 -254.19,113.8 -254.19,254.2z"/>
  <path class="fil14" d="M8688.39 1727.48c0,61.12 -51.7,110.66 -115.48,110.66 -63.76,0 -115.46,-49.54 -115.46,-110.66 0,-61.13 51.7,-110.67 115.46,-110.67 63.78,0 115.48,49.54 115.48,110.67z"/>
  <path class="fil13" d="M8589.61 1715.42c0,28.33 -25.67,51.29 -57.29,51.29 -31.67,0 -57.33,-22.96 -57.33,-51.29 0,-28.32 25.66,-51.29 57.33,-51.29 31.62,0 57.29,22.97 57.29,51.29z"/>
</svg>